<svg xmlns="http://www.w3.org/2000/svg" xmlns:xlink="http://www.w3.org/1999/xlink" width="1936" height="1296" viewBox="0 0 1936 1296">
  <defs>
    <clipPath id="clip-bg-about_outlines">
      <rect width="1936" height="1296"/>
    </clipPath>
  </defs>
  <g id="bg-about_outlines" clip-path="url(#clip-bg-about_outlines)">
    <g id="Layer_2" data-name="Layer 2">
      <path id="Path_1" data-name="Path 1" d="M1384.443,302.242s113.791,12.55,71.956,114.628c-26.416,78-35.141,20.918-35.141,20.918s15.06,6.793,25.937,30.589,30.71,0,30.71,0,12.8-6.325,19.493-5.488" fill="none" stroke="#fff" stroke-miterlimit="10" stroke-width="2"/>
      <path id="Path_2" data-name="Path 2" d="M1513.3,380.055s45.447,27.788,77.814,19.244S1509.948,351.607,1513.3,380.055Z" fill="none" stroke="#fff" stroke-miterlimit="10" stroke-width="2"/>
      <path id="Path_3" data-name="Path 3" d="M1605.333,369.848s-55.223-19.914-81.161-12.384" fill="none" stroke="#fff" stroke-miterlimit="10" stroke-width="2"/>
      <path id="Path_4" data-name="Path 4" d="M1445.522,362.806s-24.264-41.32-71.957-31.28C1395.32,362.806,1445.522,362.806,1445.522,362.806Z" fill="none" stroke="#fff" stroke-miterlimit="10" stroke-width="2"/>
      <path id="Path_5" data-name="Path 5" d="M1373.565,478.953s65.231,21.866,70.148,34.651c8.669-2.689,61.595-4.058,61.595-4.058s-35.442,44.065-64.388,38.165S1373.565,478.953,1373.565,478.953Z" fill="none" stroke="#fff" stroke-miterlimit="10" stroke-width="2"/>
      <path id="Path_6" data-name="Path 6" d="M1393.525,496.315s49.732,40.606,95.358,20.531" fill="none" stroke="#fff" stroke-miterlimit="10" stroke-width="2"/>
      <path id="Path_7" data-name="Path 7" d="M1591.187,468.384s140.078,37.473,165.092,86.5-14.039,460.067-14.039,460.067,52.392,172.882,22.405,256.29" fill="none" stroke="#fff" stroke-miterlimit="10" stroke-width="2"/>
      <path id="Path_8" data-name="Path 8" d="M1285.324,423.552S997.8,419.885,917.854,584.916s0,611.649,0,611.649,89.792,112.191,97.97,99.435" fill="none" stroke="#fff" stroke-miterlimit="10" stroke-width="2"/>
      <path id="Path_9" data-name="Path 9" d="M1439.437,1111.522s84.457-58.877,84.735-78.5,40.58,161.91,40.58,161.91" fill="none" stroke="#fff" stroke-miterlimit="10" stroke-width="2"/>
      <path id="Path_10" data-name="Path 10" d="M1091.055,719.012s-11.449,353.41,24.531,394.221,91.586,104.593,91.586,104.593,413.7,14.719,435.812,60.512" fill="none" stroke="#fff" stroke-miterlimit="10" stroke-width="2"/>
      <path id="Path_11" data-name="Path 11" d="M1285.324,1113.233c78.645-94.247,113.321-294.9,114.189-338.329s-33.359-119.871-33.359-119.871l-51.766-33.876L1162.472,648s-7.935-193.082,33.088-217.681" fill="none" stroke="#fff" stroke-miterlimit="10" stroke-width="2"/>
      <path id="Path_12" data-name="Path 12" d="M1497.4,621.157h107.935l-40.58-111.789" fill="none" stroke="#fff" stroke-miterlimit="10" stroke-width="2"/>
      <path id="Path_13" data-name="Path 13" d="M1964.876,982.85" fill="none" stroke="#fff" stroke-miterlimit="10" stroke-width="3"/>
      <path id="Path_14" data-name="Path 14" d="M1236.908,634.847" fill="none" stroke="#fff" stroke-miterlimit="10" stroke-width="2"/>
      <line id="Line_1" data-name="Line 1" x2="62.784" y2="196.477" transform="translate(1251.604 424.68)" fill="none" stroke="#fff" stroke-miterlimit="10" stroke-width="2"/>
      <path id="Path_15" data-name="Path 15" d="M1384.443,689.561l107.753-68.4-6.546-36.932" fill="none" stroke="#fff" stroke-miterlimit="10" stroke-width="2"/>
      <path id="Path_16" data-name="Path 16" d="M1409.544,200.812c79.339-51.075,212.037,6.164,231.36,45.515s2.08,99.423,2.08,99.423c-15.864,42.306-139.729,323.8-253.521,243.481s-71.957-189.1-71.957-256.031" fill="none" stroke="#fff" stroke-miterlimit="10" stroke-width="2"/>
    </g>
  </g>
</svg>
