<svg xmlns="http://www.w3.org/2000/svg" xmlns:xlink="http://www.w3.org/1999/xlink" width="640" height="426.5" viewBox="0 0 640 426.5">
  <defs>
    <clipPath id="clip-thumb_lsc_outlines">
      <rect width="640" height="426.5"/>
    </clipPath>
  </defs>
  <g id="thumb_lsc_outlines" clip-path="url(#clip-thumb_lsc_outlines)">
    <g id="Group_16" data-name="Group 16">
      <path id="Path_124" data-name="Path 124" d="M3930.878,300.772s15.818-5.28,23.8,9.98,33.234,9.969,33.234,9.969-39.5-78.483-24.167-83.68-8.65,14.177-9.068,0,2.239-62.4,73.7-72.67,131.135,188.8,121.725,258.582" transform="translate(-3589)" fill="none" stroke="#fff" stroke-width="2"/>
      <path id="Path_125" data-name="Path 125" d="M4013.953,247.34s52.645,112.687,0,112.5-69.359-24.581-69.359-24.581" transform="translate(-3589)" fill="none" stroke="#fff" stroke-width="2"/>
      <path id="Path_126" data-name="Path 126" d="M4040.979,347.11s77.583-34.289,95.359-18.122" transform="translate(-3589)" fill="none" stroke="#fff" stroke-width="2"/>
      <path id="Path_127" data-name="Path 127" d="M4000.481,163.988s-21.663-67.508-63.895-45.04-30.941,60.379-30.941,60.379,32.491,10.99,39.6,11.1-7.477-42.865,30.788-11.1" transform="translate(-3589)" fill="none" stroke="#fff" stroke-width="2"/>
      <path id="Path_128" data-name="Path 128" d="M3919.131,188.136s6.833,7.925,11.026,7.925,6.659,13.986,7.912,14.734,5.667,6.185,8.648,2.14,7.192,6.065,7.192,6.065" transform="translate(-3589)" fill="none" stroke="#fff" stroke-width="2"/>
      <path id="Path_129" data-name="Path 129" d="M4020.135,158.2s-31.854-45.4-23.5-50.807" transform="translate(-3589)" fill="none" stroke="#fff" stroke-width="2"/>
      <path id="Path_130" data-name="Path 130" d="M3995.239,103.474s18.147-40.577,71.232,46.161c6.946,22.406-2.56,11.353,6.171,31.269" transform="translate(-3589)" fill="none" stroke="#fff" stroke-width="2"/>
      <path id="Path_131" data-name="Path 131" d="M4136.339,300.349s8.07-27.945,3.325-33.4,32.563,16.749,35.449-54.831c-39.142-70.474-100.646-74.082-100.646-74.082s-8.451-77.38-31.439-75.84-47.831,40.423-47.831,40.423" transform="translate(-3589)" fill="none" stroke="#fff" stroke-width="2"/>
      <path id="Path_132" data-name="Path 132" d="M4002.5,124.231s8.612.4,8.527,14.906c3.379,2.891,8.863,0,8.863,0" transform="translate(-3589)" fill="none" stroke="#fff" stroke-width="2"/>
      <path id="Path_133" data-name="Path 133" d="M4012.551,122.229s6.164-4.465,12.5-3.032" transform="translate(-3589)" fill="none" stroke="#fff" stroke-width="2"/>
      <path id="Path_134" data-name="Path 134" d="M4016.215,126.742s7.441,1.414,8.893-3.79" transform="translate(-3589)" fill="none" stroke="#fff" stroke-width="2"/>
      <path id="Path_135" data-name="Path 135" d="M4015.294,146.293s10.415-2.777,12.1-2.311-4.813,6.979-10.211,6.455" transform="translate(-3589)" fill="none" stroke="#fff" stroke-width="2"/>
      <path id="Path_136" data-name="Path 136" d="M3885.95,342.308s-1.453-107.813,2.094-112.664,64.217-6.858,65.616,2.279" transform="translate(-3589)" fill="none" stroke="#fff" stroke-width="2"/>
      <path id="Path_137" data-name="Path 137" d="M3883.493,263.444s-3.252.169-11.512-3.71c-3.263-1.532-7.175.258-9.241-5.12-7.022-3.229-13.258-4.151-13.118-8.447.231-7.1,3.747-23.266,13.148-22.476s23.325,11.267,23.325,11.267" transform="translate(-3589)" fill="none" stroke="#fff" stroke-width="2"/>
      <path id="Path_138" data-name="Path 138" d="M3863.428,249.344s1.709-6.986,6.481-7.546" transform="translate(-3589)" fill="none" stroke="#fff" stroke-width="2"/>
      <path id="Path_139" data-name="Path 139" d="M3850.469,247.893s13.261-15.3,13.234-23.3" transform="translate(-3589)" fill="none" stroke="#fff" stroke-width="2"/>
      <path id="Path_140" data-name="Path 140" d="M3919.131,257.123l-12.515,77.735" transform="translate(-3589)" fill="none" stroke="#fff" stroke-width="2"/>
      <path id="Path_141" data-name="Path 141" d="M3899.609,349.6l24.95-34.758" transform="translate(-3589)" fill="none" stroke="#fff" stroke-width="2"/>
      <path id="Path_142" data-name="Path 142" d="M3934.415,295.991l7.969-9.325" transform="translate(-3589)" fill="none" stroke="#fff" stroke-width="2"/>
      <path id="Path_143" data-name="Path 143" d="M3953.661,243.164s-27.908,5.473-19.417,24.921,14.854,26.054,18.582,22.681,7.728-18.106,6.481-22.681" transform="translate(-3589)" fill="none" stroke="#fff" stroke-width="2"/>
      <path id="Path_144" data-name="Path 144" d="M3944.594,266.311a9.428,9.428,0,0,1,4.174,0" transform="translate(-3589)" fill="none" stroke="#fff" stroke-width="2"/>
      <path id="Path_145" data-name="Path 145" d="M3936.521,268.434s2.419.2,3.159,1.086" transform="translate(-3589)" fill="none" stroke="#fff" stroke-width="2"/>
      <path id="Path_146" data-name="Path 146" d="M4015.294,367.937s15,33.677,7.693,50.521" transform="translate(-3589)" fill="none" stroke="#fff" stroke-width="2"/>
      <path id="Path_147" data-name="Path 147" d="M3892.486,349.6c-4.56,1.573-6.647-7.555-10.026-4.934s-11.106,8.571-10.646,11.428,12.489,0,12.489,0-4.6,5.147,0,5.556,18.408-3.92,18.408-3.92S3897.046,348.027,3892.486,349.6Z" transform="translate(-3589)" fill="none" stroke="#fff" stroke-width="2"/>
      <path id="Path_148" data-name="Path 148" d="M3906.616,355.843l27.4-24.717" transform="translate(-3589)" fill="none" stroke="#fff" stroke-width="2"/>
      <path id="Path_149" data-name="Path 149" d="M3857.086,152.4s-17.81.247-12.412,15.224,12.666,28.6,16.521,24.391,10.705-9.344,9.477-17.122-1.1,44.841,16.706,52.165" transform="translate(-3589)" fill="none" stroke="#fff" stroke-width="2"/>
      <path id="Path_150" data-name="Path 150" d="M3880.413,163.988s3.307-17.954,17.489-5.554" transform="translate(-3589)" fill="none" stroke="#fff" stroke-width="2"/>
      <path id="Path_151" data-name="Path 151" d="M3793.18,175.988s.283-38.4,13.337-37.539,19.207,22.479,19.207,22.479,7.056-5.377,18.227,0" transform="translate(-3589)" fill="none" stroke="#fff" stroke-width="2"/>
      <path id="Path_152" data-name="Path 152" d="M3833.4,305.872s-1.242-70.268-8.281-77.288,24.65,0,24.65,0l-6.881,77.288" transform="translate(-3589)" fill="none" stroke="#fff" stroke-width="2"/>
      <path id="Path_153" data-name="Path 153" d="M3854.87,255.171l25.905,49.471,2.532-20.716-5.877-19.895" transform="translate(-3589)" fill="none" stroke="#fff" stroke-width="2"/>
      <path id="Path_154" data-name="Path 154" d="M3802.679,184.565v25.224l-9.947,5.974-3.2,6.869c-.8,1.717,25.707-6.869,25.707-6.869l8.318,9.064" transform="translate(-3589)" fill="none" stroke="#fff" stroke-width="2"/>
      <path id="Path_155" data-name="Path 155" d="M3798.621,159.028s20.522,3.595,26.219,18.108,15.346,0,15.346,0" transform="translate(-3589)" fill="none" stroke="#fff" stroke-width="2"/>
      <path id="Path_156" data-name="Path 156" d="M3783.387,266.483l-2.765-83.367-7.169-44.177s-6.01,4.707,3,6.058,9.65-10.534,9.65-10.534-14.05-30.6-17.962-32.094,7.156-30.618-8.965-23.019-6.927,25.7-6.927,25.7l-11.471,11.106" transform="translate(-3589)" fill="none" stroke="#fff" stroke-width="2"/>
      <path id="Path_157" data-name="Path 157" d="M3772.175,267.326l-12.937-83.684V257.4" transform="translate(-3589)" fill="none" stroke="#fff" stroke-width="2"/>
    </g>
  </g>
</svg>
