<svg xmlns="http://www.w3.org/2000/svg" xmlns:xlink="http://www.w3.org/1999/xlink" width="824" height="588" viewBox="0 0 824 588">
  <defs>
    <clipPath id="clip-thumb_case_be_outlines">
      <rect width="824" height="588"/>
    </clipPath>
  </defs>
  <g id="thumb_case_be_outlines" clip-path="url(#clip-thumb_case_be_outlines)">
    <g id="Group_17" data-name="Group 17">
      <path id="Path_158" data-name="Path 158" d="M4293,314.18h401.452V.03" transform="translate(-4293)" fill="none" stroke="#fff" stroke-width="2"/>
      <path id="Path_159" data-name="Path 159" d="M4293,253.266h401.452V.03" transform="translate(5117.451 588.21) rotate(180)" fill="none" stroke="#fff" stroke-width="2"/>
      <g id="Ellipse_5" data-name="Ellipse 5" transform="translate(173 160)" fill="none" stroke="#fff" stroke-width="2">
        <circle cx="26" cy="26" r="26" stroke="none"/>
        <circle cx="26" cy="26" r="25" fill="none"/>
      </g>
      <g id="Ellipse_8" data-name="Ellipse 8" transform="translate(694 416)" fill="none" stroke="#fff" stroke-width="2">
        <circle cx="36" cy="36" r="36" stroke="none"/>
        <circle cx="36" cy="36" r="35" fill="none"/>
      </g>
      <g id="Ellipse_9" data-name="Ellipse 9" transform="translate(575 525)" fill="none" stroke="#fff" stroke-width="2">
        <circle cx="7" cy="7" r="7" stroke="none"/>
        <circle cx="7" cy="7" r="6" fill="none"/>
      </g>
      <g id="Ellipse_12" data-name="Ellipse 12" transform="translate(579 369)" fill="none" stroke="#fff" stroke-width="2">
        <circle cx="5.5" cy="5.5" r="5.5" stroke="none"/>
        <circle cx="5.5" cy="5.5" r="4.5" fill="none"/>
      </g>
      <g id="Ellipse_13" data-name="Ellipse 13" transform="translate(593 369)" fill="none" stroke="#fff" stroke-width="2">
        <circle cx="5.5" cy="5.5" r="5.5" stroke="none"/>
        <circle cx="5.5" cy="5.5" r="4.5" fill="none"/>
      </g>
      <g id="Ellipse_14" data-name="Ellipse 14" transform="translate(606 369)" fill="none" stroke="#fff" stroke-width="2">
        <circle cx="5.5" cy="5.5" r="5.5" stroke="none"/>
        <circle cx="5.5" cy="5.5" r="4.5" fill="none"/>
      </g>
      <g id="Ellipse_15" data-name="Ellipse 15" transform="translate(619 369)" fill="none" stroke="#fff" stroke-width="2">
        <circle cx="5.5" cy="5.5" r="5.5" stroke="none"/>
        <circle cx="5.5" cy="5.5" r="4.5" fill="none"/>
      </g>
      <g id="Ellipse_16" data-name="Ellipse 16" transform="translate(632 369)" fill="none" stroke="#fff" stroke-width="2">
        <circle cx="5.5" cy="5.5" r="5.5" stroke="none"/>
        <circle cx="5.5" cy="5.5" r="4.5" fill="none"/>
      </g>
      <g id="Ellipse_17" data-name="Ellipse 17" transform="translate(644 369)" fill="none" stroke="#fff" stroke-width="2">
        <circle cx="5.5" cy="5.5" r="5.5" stroke="none"/>
        <circle cx="5.5" cy="5.5" r="4.5" fill="none"/>
      </g>
      <g id="Ellipse_18" data-name="Ellipse 18" transform="translate(657 369)" fill="none" stroke="#fff" stroke-width="2">
        <circle cx="5.5" cy="5.5" r="5.5" stroke="none"/>
        <circle cx="5.5" cy="5.5" r="4.5" fill="none"/>
      </g>
      <g id="Ellipse_10" data-name="Ellipse 10" transform="translate(707 525)" fill="none" stroke="#fff" stroke-width="2">
        <circle cx="7" cy="7" r="7" stroke="none"/>
        <circle cx="7" cy="7" r="6" fill="none"/>
      </g>
      <g id="Ellipse_11" data-name="Ellipse 11" transform="translate(507 525)" fill="none" stroke="#fff" stroke-width="2">
        <circle cx="7" cy="7" r="7" stroke="none"/>
        <circle cx="7" cy="7" r="6" fill="none"/>
      </g>
      <g id="Ellipse_6" data-name="Ellipse 6" transform="translate(231 127)" fill="none" stroke="#fff" stroke-width="2">
        <circle cx="7" cy="7" r="7" stroke="none"/>
        <circle cx="7" cy="7" r="6" fill="none"/>
      </g>
      <g id="Ellipse_7" data-name="Ellipse 7" transform="translate(153 127)" fill="none" stroke="#fff" stroke-width="2">
        <circle cx="7" cy="7" r="7" stroke="none"/>
        <circle cx="7" cy="7" r="6" fill="none"/>
      </g>
      <g id="Rectangle_15" data-name="Rectangle 15" transform="translate(61 64)" fill="none" stroke="#fff" stroke-width="2">
        <rect width="23" height="23" stroke="none"/>
        <rect x="1" y="1" width="21" height="21" fill="none"/>
      </g>
      <g id="Rectangle_16" data-name="Rectangle 16" transform="translate(86 64)" fill="none" stroke="#fff" stroke-width="2">
        <rect width="23" height="23" stroke="none"/>
        <rect x="1" y="1" width="21" height="21" fill="none"/>
      </g>
      <g id="Rectangle_20" data-name="Rectangle 20" transform="translate(164 85)" fill="none" stroke="#fff" stroke-width="2">
        <rect width="70" height="12" stroke="none"/>
        <rect x="1" y="1" width="68" height="10" fill="none"/>
      </g>
      <g id="Rectangle_21" data-name="Rectangle 21" transform="translate(266 212)" fill="none" stroke="#fff" stroke-width="2">
        <rect width="83" height="12" stroke="none"/>
        <rect x="1" y="1" width="81" height="10" fill="none"/>
      </g>
      <g id="Rectangle_22" data-name="Rectangle 22" transform="translate(266 235)" fill="none" stroke="#fff" stroke-width="2">
        <rect width="83" height="12" stroke="none"/>
        <rect x="1" y="1" width="81" height="10" fill="none"/>
      </g>
      <g id="Rectangle_23" data-name="Rectangle 23" transform="translate(266 258)" fill="none" stroke="#fff" stroke-width="2">
        <rect width="83" height="12" stroke="none"/>
        <rect x="1" y="1" width="81" height="10" fill="none"/>
      </g>
      <g id="Rectangle_24" data-name="Rectangle 24" transform="translate(266 281)" fill="none" stroke="#fff" stroke-width="2">
        <rect width="83" height="12" stroke="none"/>
        <rect x="1" y="1" width="81" height="10" fill="none"/>
      </g>
      <g id="Rectangle_17" data-name="Rectangle 17" transform="translate(86 90)" fill="none" stroke="#fff" stroke-width="2">
        <rect width="23" height="23" stroke="none"/>
        <rect x="1" y="1" width="21" height="21" fill="none"/>
      </g>
      <g id="Rectangle_18" data-name="Rectangle 18" transform="translate(61 90)" fill="none" stroke="#fff" stroke-width="2">
        <rect width="23" height="23" stroke="none"/>
        <rect x="1" y="1" width="21" height="21" fill="none"/>
      </g>
      <g id="Rectangle_19" data-name="Rectangle 19" transform="translate(36 90)" fill="none" stroke="#fff" stroke-width="2">
        <rect width="23" height="23" stroke="none"/>
        <rect x="1" y="1" width="21" height="21" fill="none"/>
      </g>
      <line id="Line_10" data-name="Line 10" x2="83" transform="translate(39.5 246.5)" fill="none" stroke="#fff" stroke-width="2"/>
      <line id="Line_11" data-name="Line 11" x2="83" transform="translate(39.5 252.5)" fill="none" stroke="#fff" stroke-width="2"/>
      <line id="Line_12" data-name="Line 12" x2="83" transform="translate(39.5 258.5)" fill="none" stroke="#fff" stroke-width="2"/>
      <line id="Line_13" data-name="Line 13" x2="38" transform="translate(39.5 235.5)" fill="none" stroke="#fff" stroke-width="2"/>
      <line id="Line_14" data-name="Line 14" x2="38" transform="translate(39.5 224.5)" fill="none" stroke="#fff" stroke-width="2"/>
      <line id="Line_15" data-name="Line 15" x2="56" transform="translate(39.5 209.5)" fill="none" stroke="#fff" stroke-width="2"/>
      <line id="Line_16" data-name="Line 16" x2="22" transform="translate(39.5 194.5)" fill="none" stroke="#fff" stroke-width="2"/>
      <line id="Line_17" data-name="Line 17" x2="38" transform="translate(39.5 286.5)" fill="none" stroke="#fff" stroke-width="2"/>
      <line id="Line_18" data-name="Line 18" x2="24" transform="translate(156.5 258.5)" fill="none" stroke="#fff" stroke-width="2"/>
      <line id="Line_27" data-name="Line 27" x2="33" transform="translate(266.5 277.5)" fill="none" stroke="#fff" stroke-width="2"/>
      <line id="Line_28" data-name="Line 28" x2="25" transform="translate(266.5 254.5)" fill="none" stroke="#fff" stroke-width="2"/>
      <line id="Line_29" data-name="Line 29" x2="18" transform="translate(266.5 229.5)" fill="none" stroke="#fff" stroke-width="2"/>
      <line id="Line_30" data-name="Line 30" x2="18" transform="translate(266.5 208.5)" fill="none" stroke="#fff" stroke-width="2"/>
      <line id="Line_31" data-name="Line 31" x2="18" transform="translate(277.5 192.5)" fill="none" stroke="#fff" stroke-width="2"/>
      <line id="Line_32" data-name="Line 32" x2="18" transform="translate(277.5 178.5)" fill="none" stroke="#fff" stroke-width="2"/>
      <line id="Line_25" data-name="Line 25" x2="19" transform="translate(152.5 221.5)" fill="none" stroke="#fff" stroke-width="2"/>
      <line id="Line_26" data-name="Line 26" x2="19" transform="translate(223.5 221.5)" fill="none" stroke="#fff" stroke-width="2"/>
      <path id="Path_160" data-name="Path 160" d="M0,0H37.615" transform="translate(178.5 221.5)" fill="none" stroke="#fff" stroke-width="2"/>
      <path id="Path_163" data-name="Path 163" d="M0,0H20.43" transform="translate(511.93 416.5) rotate(180)" fill="none" stroke="#fff" stroke-width="2"/>
      <path id="Path_164" data-name="Path 164" d="M0,0H13.893" transform="translate(505.393 452.5) rotate(180)" fill="none" stroke="#fff" stroke-width="2"/>
      <path id="Path_165" data-name="Path 165" d="M0,0H18.885" transform="translate(510.385 475.5) rotate(180)" fill="none" stroke="#fff" stroke-width="2"/>
      <path id="Path_167" data-name="Path 167" d="M0,0H10.215" transform="translate(501.715 506.5) rotate(180)" fill="none" stroke="#fff" stroke-width="2"/>
      <path id="Path_168" data-name="Path 168" d="M0,0H10.215" transform="translate(501.715 470.5) rotate(180)" fill="none" stroke="#fff" stroke-width="2"/>
      <path id="Path_172" data-name="Path 172" d="M0,0H10.215" transform="translate(592.715 472.5) rotate(180)" fill="none" stroke="#fff" stroke-width="2"/>
      <path id="Path_175" data-name="Path 175" d="M0,0H10.215" transform="translate(664.715 472.5) rotate(180)" fill="none" stroke="#fff" stroke-width="2"/>
      <path id="Path_173" data-name="Path 173" d="M0,0H10.215" transform="translate(592.715 484.5) rotate(180)" fill="none" stroke="#fff" stroke-width="2"/>
      <path id="Path_174" data-name="Path 174" d="M0,0H10.215" transform="translate(664.715 484.5) rotate(180)" fill="none" stroke="#fff" stroke-width="2"/>
      <path id="Path_169" data-name="Path 169" d="M0,0H10.215" transform="translate(501.715 447.5) rotate(180)" fill="none" stroke="#fff" stroke-width="2"/>
      <path id="Path_170" data-name="Path 170" d="M0,0H10.215" transform="translate(501.715 411.5) rotate(180)" fill="none" stroke="#fff" stroke-width="2"/>
      <path id="Path_166" data-name="Path 166" d="M0,0H30.055" transform="translate(521.555 511.5) rotate(180)" fill="none" stroke="#fff" stroke-width="2"/>
      <path id="Path_161" data-name="Path 161" d="M0,0H51.318" transform="translate(265.5 58.5)" fill="none" stroke="#fff" stroke-width="2"/>
      <path id="Path_176" data-name="Path 176" d="M0,0H54.087" transform="translate(646.73 107.5)" fill="none" stroke="#fff" stroke-width="2"/>
      <path id="Path_201" data-name="Path 201" d="M0,0H65" transform="translate(646.73 280.5)" fill="none" stroke="#fff" stroke-width="2"/>
      <path id="Path_185" data-name="Path 185" d="M0,0H239.77" transform="translate(26.73 388.5)" fill="none" stroke="#fff" stroke-width="2"/>
      <path id="Path_177" data-name="Path 177" d="M0,0H170.055" transform="translate(646.73 9.5)" fill="none" stroke="#fff" stroke-width="2"/>
      <path id="Path_181" data-name="Path 181" d="M0,0H170.055" transform="translate(646.73 50.5)" fill="none" stroke="#fff" stroke-width="2"/>
      <path id="Path_186" data-name="Path 186" d="M0,0H170.055" transform="translate(642.73 134.5)" fill="none" stroke="#fff" stroke-width="2"/>
      <path id="Path_195" data-name="Path 195" d="M0,0H170.055" transform="translate(642.73 182.5)" fill="none" stroke="#fff" stroke-width="2"/>
      <path id="Path_200" data-name="Path 200" d="M0,0H170.055" transform="translate(642.73 221.5)" fill="none" stroke="#fff" stroke-width="2"/>
      <path id="Path_183" data-name="Path 183" d="M0,0H177.27" transform="translate(646.73 66.5)" fill="none" stroke="#fff" stroke-width="2"/>
      <path id="Path_187" data-name="Path 187" d="M0,0H177.27" transform="translate(642.73 150.5)" fill="none" stroke="#fff" stroke-width="2"/>
      <path id="Path_193" data-name="Path 193" d="M0,0H177.27" transform="translate(642.73 198.5)" fill="none" stroke="#fff" stroke-width="2"/>
      <path id="Path_198" data-name="Path 198" d="M0,0H177.27" transform="translate(642.73 237.5)" fill="none" stroke="#fff" stroke-width="2"/>
      <path id="Path_178" data-name="Path 178" d="M0,0H158.9" transform="translate(646.73 18.5)" fill="none" stroke="#fff" stroke-width="2"/>
      <path id="Path_179" data-name="Path 179" d="M0,0H148.025" transform="translate(646.73 25.5)" fill="none" stroke="#fff" stroke-width="2"/>
      <path id="Path_182" data-name="Path 182" d="M0,0H148.025" transform="translate(646.73 57.5)" fill="none" stroke="#fff" stroke-width="2"/>
      <path id="Path_188" data-name="Path 188" d="M0,0H174.055" transform="translate(642.73 141.5)" fill="none" stroke="#fff" stroke-width="2"/>
      <path id="Path_194" data-name="Path 194" d="M0,0H174.055" transform="translate(642.73 189.5)" fill="none" stroke="#fff" stroke-width="2"/>
      <path id="Path_199" data-name="Path 199" d="M0,0H162.9" transform="translate(642.73 228.5)" fill="none" stroke="#fff" stroke-width="2"/>
      <path id="Path_184" data-name="Path 184" d="M0,0H106.675" transform="translate(646.73 73.5)" fill="none" stroke="#fff" stroke-width="2"/>
      <path id="Path_189" data-name="Path 189" d="M0,0H155.807" transform="translate(642.73 157.5)" fill="none" stroke="#fff" stroke-width="2"/>
      <path id="Path_192" data-name="Path 192" d="M0,0H174.055" transform="translate(642.73 205.5)" fill="none" stroke="#fff" stroke-width="2"/>
      <path id="Path_197" data-name="Path 197" d="M0,0H155.807" transform="translate(642.73 244.5)" fill="none" stroke="#fff" stroke-width="2"/>
      <path id="Path_190" data-name="Path 190" d="M0,0H155.807" transform="translate(642.73 166.5)" fill="none" stroke="#fff" stroke-width="2"/>
      <path id="Path_191" data-name="Path 191" d="M0,0H166.765" transform="translate(642.73 214.5)" fill="none" stroke="#fff" stroke-width="2"/>
      <path id="Path_196" data-name="Path 196" d="M0,0H131.844" transform="translate(642.73 253.5)" fill="none" stroke="#fff" stroke-width="2"/>
      <path id="Path_202" data-name="Path 202" d="M0,0H170.055" transform="translate(642.73 307.5)" fill="none" stroke="#fff" stroke-width="2"/>
      <path id="Path_180" data-name="Path 180" d="M0,0H129.994" transform="translate(646.73 34.5)" fill="none" stroke="#fff" stroke-width="2"/>
      <line id="Line_19" data-name="Line 19" x2="24" transform="translate(168.5 268.5)" fill="none" stroke="#fff" stroke-width="2"/>
      <line id="Line_21" data-name="Line 21" x2="28" transform="translate(168.5 287.5)" fill="none" stroke="#fff" stroke-width="2"/>
      <line id="Line_20" data-name="Line 20" x2="19" transform="translate(168.5 274.5)" fill="none" stroke="#fff" stroke-width="2"/>
      <line id="Line_22" data-name="Line 22" x2="19" transform="translate(168.5 292.5)" fill="none" stroke="#fff" stroke-width="2"/>
      <line id="Line_23" data-name="Line 23" x2="15" transform="translate(227.5 289.5)" fill="none" stroke="#fff" stroke-width="2"/>
      <line id="Line_24" data-name="Line 24" x2="15" transform="translate(227.5 270.5)" fill="none" stroke="#fff" stroke-width="2"/>
      <path id="Path_162" data-name="Path 162" d="M4415.5,582.8V471.157s-5.614-15.634,15.367-16.786,260.737,0,260.737,0" transform="translate(-4293)" fill="none" stroke="#fff" stroke-width="2"/>
      <path id="Path_171" data-name="Path 171" d="M4903.695,439.555c-.354-23.449,0-25.676,0-25.676s1.613-7.115,8.551,0c.827,9.754.814,18.886.814,18.886s4.378,8.854,7.021,0c.452-8.379,0-18.886,0-18.886s6.474-8.825,8.419,0,1.427,25.676,1.427,25.676" transform="translate(-4293)" fill="none" stroke="#fff" stroke-width="2"/>
      <g id="Group_9" data-name="Group 9" transform="translate(-145 43)">
        <g id="Rectangle_10" data-name="Rectangle 10" transform="translate(568 114)" fill="none" stroke="#fff" stroke-width="2">
          <rect width="194" height="71" stroke="none"/>
          <rect x="1" y="1" width="192" height="69" fill="none"/>
        </g>
        <line id="Line_8" data-name="Line 8" x2="191" y2="67.743" transform="translate(568.5 115.5)" fill="none" stroke="#fff" stroke-width="2"/>
        <line id="Line_9" data-name="Line 9" y1="68.743" x2="191" transform="translate(568.5 114.5)" fill="none" stroke="#fff" stroke-width="2"/>
      </g>
      <g id="Group_13" data-name="Group 13" transform="translate(-432 357)">
        <g id="Rectangle_10-2" data-name="Rectangle 10" transform="translate(568 114)" fill="none" stroke="#fff" stroke-width="2">
          <rect width="263" height="112" stroke="none"/>
          <rect x="1" y="1" width="261" height="110" fill="none"/>
        </g>
        <line id="Line_8-2" data-name="Line 8" x2="259.604" y2="108.547" transform="translate(568.5 115.5)" fill="none" stroke="#fff" stroke-width="2"/>
        <line id="Line_9-2" data-name="Line 9" y1="109.547" x2="259.604" transform="translate(568.5 114.5)" fill="none" stroke="#fff" stroke-width="2"/>
      </g>
      <g id="Group_12" data-name="Group 12" transform="translate(-145 -104.5)">
        <g id="Rectangle_10-3" data-name="Rectangle 10" transform="translate(568 114.5)" fill="none" stroke="#fff" stroke-width="2">
          <rect width="194" height="129" stroke="none"/>
          <rect x="1" y="1" width="192" height="127" fill="none"/>
        </g>
        <line id="Line_8-3" data-name="Line 8" x2="191" y2="126.243" transform="translate(568.5 115.5)" fill="none" stroke="#fff" stroke-width="2"/>
        <line id="Line_9-3" data-name="Line 9" y1="127.243" x2="191" transform="translate(568.5 114.5)" fill="none" stroke="#fff" stroke-width="2"/>
      </g>
      <g id="Group_10" data-name="Group 10" transform="translate(-41 120)">
        <g id="Rectangle_10-4" data-name="Rectangle 10" transform="translate(568 114)" fill="none" stroke="#fff" stroke-width="2">
          <rect width="52" height="33" stroke="none"/>
          <rect x="1" y="1" width="50" height="31" fill="none"/>
        </g>
        <line id="Line_8-4" data-name="Line 8" x2="49" y2="29.83" transform="translate(568.5 115.5)" fill="none" stroke="#fff" stroke-width="2"/>
        <line id="Line_9-4" data-name="Line 9" y1="30.83" x2="49" transform="translate(568.5 114.5)" fill="none" stroke="#fff" stroke-width="2"/>
      </g>
      <g id="Group_11" data-name="Group 11" transform="translate(-123 173)">
        <g id="Rectangle_10-5" data-name="Rectangle 10" transform="translate(568 114)" fill="none" stroke="#fff" stroke-width="2">
          <rect width="44" height="27" stroke="none"/>
          <rect x="1" y="1" width="42" height="25" fill="none"/>
        </g>
        <line id="Line_8-5" data-name="Line 8" x2="40.505" y2="23.83" transform="translate(568.5 115.5)" fill="none" stroke="#fff" stroke-width="2"/>
        <line id="Line_9-5" data-name="Line 9" y1="24.83" x2="40.505" transform="translate(568.5 114.5)" fill="none" stroke="#fff" stroke-width="2"/>
      </g>
    </g>
  </g>
</svg>
