<svg xmlns="http://www.w3.org/2000/svg" xmlns:xlink="http://www.w3.org/1999/xlink" width="697.5" height="420" viewBox="0 0 697.5 420">
  <defs>
    <clipPath id="clip-thumb_case_ko_outlines">
      <rect width="697.5" height="420"/>
    </clipPath>
  </defs>
  <g id="thumb_case_ko_outlines" clip-path="url(#clip-thumb_case_ko_outlines)">
    <g id="Group_14" data-name="Group 14">
      <path id="Path_22" data-name="Path 22" d="M2283.533,219.472l26.4-14.084,24.412,14.084-26.409,13.875Z" transform="translate(-2021)" fill="none" stroke="#fff" stroke-width="2"/>
      <path id="Path_23" data-name="Path 23" d="M2342.246,219.368h-6.775" transform="translate(-2020.818 72)" fill="none" stroke="#fff" stroke-width="2"/>
      <path id="Path_25" data-name="Path 25" d="M2424.818,219.368h-89.347" transform="translate(-2015.818 123)" fill="none" stroke="#fff" stroke-width="2"/>
      <path id="Path_24" data-name="Path 24" d="M2362.818,219.368h-27.347" transform="translate(-2022.818)" fill="none" stroke="#fff" stroke-width="2"/>
      <path id="Path_40" data-name="Path 40" d="M2405.678,219.368h-70.206" transform="translate(-2217.818 -134)" fill="none" stroke="#fff" stroke-width="2"/>
      <path id="Path_41" data-name="Path 41" d="M2405.678,219.368h-70.206" transform="translate(-2217.818 -63)" fill="none" stroke="#fff" stroke-width="2"/>
      <path id="Path_42" data-name="Path 42" d="M2405.678,219.368h-70.206" transform="translate(-2217.818 13)" fill="none" stroke="#fff" stroke-width="2"/>
      <path id="Path_43" data-name="Path 43" d="M2405.678,219.368h-70.206" transform="translate(-2217.818 72)" fill="none" stroke="#fff" stroke-width="2"/>
      <path id="Path_44" data-name="Path 44" d="M2383.678,219.368h-48.206" transform="translate(-2195.818 108)" fill="none" stroke="#fff" stroke-width="2"/>
      <path id="Path_45" data-name="Path 45" d="M2383.678,219.368h-48.206" transform="translate(-2193.818 157)" fill="none" stroke="#fff" stroke-width="2"/>
      <g id="Rectangle_3" data-name="Rectangle 3" transform="translate(340 181)" fill="none" stroke="#fff" stroke-width="2">
        <rect width="54" height="73" stroke="none"/>
        <rect x="1" y="1" width="52" height="71" fill="none"/>
      </g>
      <g id="Rectangle_6" data-name="Rectangle 6" transform="translate(261 257)" fill="none" stroke="#fff" stroke-width="2">
        <rect width="54" height="73" stroke="none"/>
        <rect x="1" y="1" width="52" height="71" fill="none"/>
      </g>
      <g id="Rectangle_4" data-name="Rectangle 4" transform="translate(263 121)" fill="none" stroke="#fff" stroke-width="2">
        <rect width="54" height="70" stroke="none"/>
        <rect x="1" y="1" width="52" height="68" fill="none"/>
      </g>
      <g id="Rectangle_5" data-name="Rectangle 5" transform="translate(263 37)" fill="none" stroke="#fff" stroke-width="2">
        <rect width="54" height="70" stroke="none"/>
        <rect x="1" y="1" width="52" height="68" fill="none"/>
      </g>
      <line id="Line_2" data-name="Line 2" y1="15" transform="translate(289.5 190.5)" fill="none" stroke="#fff" stroke-width="2"/>
      <line id="Line_4" data-name="Line 4" y1="23" transform="translate(287.5 233.5)" fill="none" stroke="#fff" stroke-width="2"/>
      <line id="Line_7" data-name="Line 7" y1="52" transform="translate(320.5 291.5)" fill="none" stroke="#fff" stroke-width="2"/>
      <line id="Line_3" data-name="Line 3" y1="15" transform="translate(289.5 106.5)" fill="none" stroke="#fff" stroke-width="2"/>
      <g id="Group_1" data-name="Group 1">
        <path id="Path_26" data-name="Path 26" d="M2362.818,219.368h-27.347" transform="translate(-1925.972 -28)" fill="none" stroke="#fff" stroke-width="2"/>
        <path id="Path_27" data-name="Path 27" d="M2394.153,219.368h-58.681" transform="translate(-1925.972 -22)" fill="none" stroke="#fff" stroke-width="2"/>
        <path id="Path_28" data-name="Path 28" d="M2394.153,219.368h-58.681" transform="translate(-1925.972 -17)" fill="none" stroke="#fff" stroke-width="2"/>
        <path id="Path_29" data-name="Path 29" d="M2394.153,219.368h-58.681" transform="translate(-1925.972 -12)" fill="none" stroke="#fff" stroke-width="2"/>
        <g id="Rectangle_7" data-name="Rectangle 7" transform="translate(409 150)" fill="none" stroke="#fff" stroke-width="2">
          <rect width="59" height="36" stroke="none"/>
          <rect x="1" y="1" width="57" height="34" fill="none"/>
        </g>
        <g id="Rectangle_8" data-name="Rectangle 8" transform="translate(409 214)" fill="none" stroke="#fff" stroke-width="2">
          <rect width="24" height="8" stroke="none"/>
          <rect x="1" y="1" width="22" height="6" fill="none"/>
        </g>
        <line id="Line_5" data-name="Line 5" x2="56" y2="33" transform="translate(409.5 151.5)" fill="none" stroke="#fff" stroke-width="2"/>
        <line id="Line_6" data-name="Line 6" y1="34" x2="56" transform="translate(409.5 150.5)" fill="none" stroke="#fff" stroke-width="2"/>
      </g>
      <g id="Group_2" data-name="Group 2" transform="translate(0 -78)">
        <path id="Path_26-2" data-name="Path 26" d="M2362.818,219.368h-27.347" transform="translate(-1925.972 -28)" fill="none" stroke="#fff" stroke-width="2"/>
        <path id="Path_27-2" data-name="Path 27" d="M2394.153,219.368h-58.681" transform="translate(-1925.972 -22)" fill="none" stroke="#fff" stroke-width="2"/>
        <path id="Path_28-2" data-name="Path 28" d="M2394.153,219.368h-58.681" transform="translate(-1925.972 -17)" fill="none" stroke="#fff" stroke-width="2"/>
        <path id="Path_29-2" data-name="Path 29" d="M2394.153,219.368h-58.681" transform="translate(-1925.972 -12)" fill="none" stroke="#fff" stroke-width="2"/>
        <g id="Rectangle_7-2" data-name="Rectangle 7" transform="translate(409 150)" fill="none" stroke="#fff" stroke-width="2">
          <rect width="59" height="36" stroke="none"/>
          <rect x="1" y="1" width="57" height="34" fill="none"/>
        </g>
        <g id="Rectangle_8-2" data-name="Rectangle 8" transform="translate(409 214)" fill="none" stroke="#fff" stroke-width="2">
          <rect width="24" height="8" stroke="none"/>
          <rect x="1" y="1" width="22" height="6" fill="none"/>
        </g>
        <line id="Line_5-2" data-name="Line 5" x2="56" y2="33" transform="translate(409.5 151.5)" fill="none" stroke="#fff" stroke-width="2"/>
        <line id="Line_6-2" data-name="Line 6" y1="34" x2="56" transform="translate(409.5 150.5)" fill="none" stroke="#fff" stroke-width="2"/>
      </g>
      <g id="Group_3" data-name="Group 3" transform="translate(0 78)">
        <path id="Path_26-3" data-name="Path 26" d="M2362.818,219.368h-27.347" transform="translate(-1925.972 -28)" fill="none" stroke="#fff" stroke-width="2"/>
        <path id="Path_27-3" data-name="Path 27" d="M2394.153,219.368h-58.681" transform="translate(-1925.972 -22)" fill="none" stroke="#fff" stroke-width="2"/>
        <path id="Path_28-3" data-name="Path 28" d="M2394.153,219.368h-58.681" transform="translate(-1925.972 -17)" fill="none" stroke="#fff" stroke-width="2"/>
        <path id="Path_29-3" data-name="Path 29" d="M2394.153,219.368h-58.681" transform="translate(-1925.972 -12)" fill="none" stroke="#fff" stroke-width="2"/>
        <g id="Rectangle_7-3" data-name="Rectangle 7" transform="translate(409 150)" fill="none" stroke="#fff" stroke-width="2">
          <rect width="59" height="36" stroke="none"/>
          <rect x="1" y="1" width="57" height="34" fill="none"/>
        </g>
        <g id="Rectangle_8-3" data-name="Rectangle 8" transform="translate(409 214)" fill="none" stroke="#fff" stroke-width="2">
          <rect width="24" height="8" stroke="none"/>
          <rect x="1" y="1" width="22" height="6" fill="none"/>
        </g>
        <line id="Line_5-3" data-name="Line 5" x2="56" y2="33" transform="translate(409.5 151.5)" fill="none" stroke="#fff" stroke-width="2"/>
        <line id="Line_6-3" data-name="Line 6" y1="34" x2="56" transform="translate(409.5 150.5)" fill="none" stroke="#fff" stroke-width="2"/>
      </g>
      <g id="Group_4" data-name="Group 4" transform="translate(0 158)">
        <path id="Path_26-4" data-name="Path 26" d="M2362.818,219.368h-27.347" transform="translate(-1925.972 -28)" fill="none" stroke="#fff" stroke-width="2"/>
        <path id="Path_27-4" data-name="Path 27" d="M2394.153,219.368h-58.681" transform="translate(-1925.972 -22)" fill="none" stroke="#fff" stroke-width="2"/>
        <path id="Path_28-4" data-name="Path 28" d="M2394.153,219.368h-58.681" transform="translate(-1925.972 -17)" fill="none" stroke="#fff" stroke-width="2"/>
        <path id="Path_29-4" data-name="Path 29" d="M2394.153,219.368h-58.681" transform="translate(-1925.972 -12)" fill="none" stroke="#fff" stroke-width="2"/>
        <g id="Rectangle_7-4" data-name="Rectangle 7" transform="translate(409 150)" fill="none" stroke="#fff" stroke-width="2">
          <rect width="59" height="36" stroke="none"/>
          <rect x="1" y="1" width="57" height="34" fill="none"/>
        </g>
        <g id="Rectangle_8-4" data-name="Rectangle 8" transform="translate(409 214)" fill="none" stroke="#fff" stroke-width="2">
          <rect width="24" height="8" stroke="none"/>
          <rect x="1" y="1" width="22" height="6" fill="none"/>
        </g>
        <line id="Line_5-4" data-name="Line 5" x2="56" y2="33" transform="translate(409.5 151.5)" fill="none" stroke="#fff" stroke-width="2"/>
        <line id="Line_6-4" data-name="Line 6" y1="34" x2="56" transform="translate(409.5 150.5)" fill="none" stroke="#fff" stroke-width="2"/>
      </g>
      <path id="Path_30" data-name="Path 30" d="M2072.173,93.774c15.915-.9,34.89,4.322,34.89,4.322s-2.329,42-7.176,42.376-39.112-6.218-39.112-6.218A59.092,59.092,0,0,0,2072.173,93.774Z" transform="translate(-2021)" fill="none" stroke="#fff" stroke-width="2"/>
      <path id="Path_31" data-name="Path 31" d="M2079.274,163.1s-6.185,37.923-13.833,37.631,36.033,8.052,36.033,8.052,13.077-28.519,8.689-43.042C2096.317,164.8,2079.274,163.1,2079.274,163.1Z" transform="translate(-2021)" fill="none" stroke="#fff" stroke-width="2"/>
      <path id="Path_32" data-name="Path 32" d="M2038.324,204.707l29.658,4.257s-2.295,35.64-2.489,36.2-32.324-6.333-32.324-6.333Z" transform="translate(-2021)" fill="none" stroke="#fff" stroke-width="2"/>
      <path id="Path_33" data-name="Path 33" d="M2078.085,210.409c6.151.364,30.938,5.294,30.938,5.294s2.355,33.74-3.584,38.906c-11.647-.368-36.179-5.293-36.179-5.293S2080.544,215.9,2078.085,210.409Z" transform="translate(-2021)" fill="none" stroke="#fff" stroke-width="2"/>
      <path id="Path_34" data-name="Path 34" d="M2079.4,254.61c6.181,1.285,30.392,3.462,30.392,3.462s-2.527,35.261-4.778,39.553c-9.157.55-37.5-8.671-37.5-8.671S2082.7,266.541,2079.4,254.61Z" transform="translate(-2021)" fill="none" stroke="#fff" stroke-width="2"/>
      <path id="Path_35" data-name="Path 35" d="M2040.93,245.2l28.761,6.1s-.82,34.914-2.547,36.344-31.321-6.99-31.321-6.99Z" transform="translate(-2021)" fill="none" stroke="#fff" stroke-width="2"/>
      <path id="Path_36" data-name="Path 36" d="M2035.322,160.155l30.4,4.394-3.03,38.984-31.417-5.983Z" transform="translate(-2021)" fill="none" stroke="#fff" stroke-width="2"/>
      <path id="Path_37" data-name="Path 37" d="M2031.276,95.33l30.107.78s.039,33.158-3.213,41.028a129.809,129.809,0,0,1-28.521-1.738Z" transform="translate(-2021)" fill="none" stroke="#fff" stroke-width="2"/>
      <path id="Path_38" data-name="Path 38" d="M2026.95,25.452h29.561l1.342,8.1s-5.259,30.031-8.09,30.244-28.684,0-28.684,0Z" transform="translate(-2021)" fill="none" stroke="#fff" stroke-width="2"/>
      <path id="Path_39" data-name="Path 39" d="M2071.291,23.434c15.739-2.2,32.49,0,32.49,0s9.711,24.583-4.884,41.931c-24.47-.3-38.006-2.281-38.006-2.281A143.512,143.512,0,0,0,2071.291,23.434Z" transform="translate(-2021)" fill="none" stroke="#fff" stroke-width="2"/>
      <g id="Ellipse_1" data-name="Ellipse 1" transform="translate(214 223)" fill="none" stroke="#fff" stroke-width="2">
        <circle cx="11" cy="11" r="11" stroke="none"/>
        <circle cx="11" cy="11" r="10" fill="none"/>
      </g>
      <g id="Ellipse_2" data-name="Ellipse 2" transform="translate(506 107)" fill="none" stroke="#fff" stroke-width="2">
        <circle cx="11" cy="11" r="11" stroke="none"/>
        <circle cx="11" cy="11" r="10" fill="none"/>
      </g>
      <g id="Ellipse_3" data-name="Ellipse 3" transform="translate(506 172)" fill="none" stroke="#fff" stroke-width="2">
        <circle cx="11" cy="11" r="11" stroke="none"/>
        <circle cx="11" cy="11" r="10" fill="none"/>
      </g>
      <g id="Ellipse_4" data-name="Ellipse 4" transform="translate(506 236)" fill="none" stroke="#fff" stroke-width="2">
        <circle cx="11" cy="11" r="11" stroke="none"/>
        <circle cx="11" cy="11" r="10" fill="none"/>
      </g>
      <path id="Path_46" data-name="Path 46" d="M2346.2,219.368h-10.724" transform="translate(-2126.972 -88)" fill="none" stroke="#fff" stroke-width="2"/>
      <path id="Path_47" data-name="Path 47" d="M2346.2,219.368h-10.724" transform="translate(-2126.972 -79)" fill="none" stroke="#fff" stroke-width="2"/>
      <path id="Path_48" data-name="Path 48" d="M2361.458,219.368h-25.986" transform="translate(-2126.972 -71)" fill="none" stroke="#fff" stroke-width="2"/>
      <path id="Path_49" data-name="Path 49" d="M2374.253,219.368h-38.781" transform="translate(-2126.972 -62)" fill="none" stroke="#fff" stroke-width="2"/>
      <path id="Path_50" data-name="Path 50" d="M2379.426,219.368h-43.955" transform="translate(-2126.972 -53)" fill="none" stroke="#fff" stroke-width="2"/>
      <path id="Path_51" data-name="Path 51" d="M2387.489,219.368h-52.017" transform="translate(-2135.034 57)" fill="none" stroke="#fff" stroke-width="2"/>
      <path id="Path_62" data-name="Path 62" d="M2387.489,219.368h-52.017" transform="translate(-2134.034 -155)" fill="none" stroke="#fff" stroke-width="2"/>
      <path id="Path_63" data-name="Path 63" d="M2387.489,219.368h-52.017" transform="translate(-2145.034 -204)" fill="none" stroke="#fff" stroke-width="2"/>
      <path id="Path_56" data-name="Path 56" d="M2387.489,219.368h-52.017" transform="translate(-2135.034 104)" fill="none" stroke="#fff" stroke-width="2"/>
      <path id="Path_59" data-name="Path 59" d="M2387.489,219.368h-52.017" transform="translate(-2135.034 149)" fill="none" stroke="#fff" stroke-width="2"/>
      <path id="Path_52" data-name="Path 52" d="M2387.489,219.368h-52.017" transform="translate(-2135.034 65)" fill="none" stroke="#fff" stroke-width="2"/>
      <path id="Path_61" data-name="Path 61" d="M2387.489,219.368h-52.017" transform="translate(-2134.034 -147)" fill="none" stroke="#fff" stroke-width="2"/>
      <path id="Path_55" data-name="Path 55" d="M2387.489,219.368h-52.017" transform="translate(-2135.034 112)" fill="none" stroke="#fff" stroke-width="2"/>
      <path id="Path_58" data-name="Path 58" d="M2387.489,219.368h-52.017" transform="translate(-2135.034 157)" fill="none" stroke="#fff" stroke-width="2"/>
      <path id="Path_53" data-name="Path 53" d="M2387.489,219.368h-52.017" transform="translate(-2135.034 73)" fill="none" stroke="#fff" stroke-width="2"/>
      <path id="Path_60" data-name="Path 60" d="M2387.489,219.368h-52.017" transform="translate(-2134.034 -139)" fill="none" stroke="#fff" stroke-width="2"/>
      <path id="Path_54" data-name="Path 54" d="M2387.489,219.368h-52.017" transform="translate(-2135.034 120)" fill="none" stroke="#fff" stroke-width="2"/>
      <path id="Path_57" data-name="Path 57" d="M2387.489,219.368h-52.017" transform="translate(-2135.034 165)" fill="none" stroke="#fff" stroke-width="2"/>
      <path id="Path_64" data-name="Path 64" d="M2085.835,297.649s-9.258,27.189-12.264,27.321,32.615,9.491,32.615,9.491,12.01-29.926,10.918-36.812a31.52,31.52,0,0,0-8.372-2.908" transform="translate(-2021)" fill="none" stroke="#fff" stroke-width="2"/>
      <path id="Path_65" data-name="Path 65" d="M2530.824,110.837l14.335,14.421" transform="translate(-2021)" fill="none" stroke="#fff" stroke-width="2"/>
      <path id="Path_83" data-name="Path 83" d="M2530.824,110.837l14.335,14.421" transform="translate(-2021 65)" fill="none" stroke="#fff" stroke-width="2"/>
      <path id="Path_91" data-name="Path 91" d="M2530.824,110.837l14.335,14.421" transform="translate(-2021 129)" fill="none" stroke="#fff" stroke-width="2"/>
      <path id="Path_66" data-name="Path 66" d="M2545.78,110.837l-15.646,13.449" transform="translate(-2021)" fill="none" stroke="#fff" stroke-width="2"/>
      <path id="Path_84" data-name="Path 84" d="M2545.78,110.837l-15.646,13.449" transform="translate(-2021 65)" fill="none" stroke="#fff" stroke-width="2"/>
      <path id="Path_92" data-name="Path 92" d="M2545.78,110.837l-15.646,13.449" transform="translate(-2021 129)" fill="none" stroke="#fff" stroke-width="2"/>
      <path id="Path_67" data-name="Path 67" d="M2387.27,219.368h-51.8" transform="translate(-1843.972 -158)" fill="none" stroke="#fff" stroke-width="2"/>
      <path id="Path_71" data-name="Path 71" d="M2387.27,219.368h-51.8" transform="translate(-1841.972 -78)" fill="none" stroke="#fff" stroke-width="2"/>
      <path id="Path_81" data-name="Path 81" d="M2387.27,219.368h-51.8" transform="translate(-1841.972 -13)" fill="none" stroke="#fff" stroke-width="2"/>
      <path id="Path_89" data-name="Path 89" d="M2387.27,219.368h-51.8" transform="translate(-1841.972 51)" fill="none" stroke="#fff" stroke-width="2"/>
      <path id="Path_76" data-name="Path 76" d="M2387.27,219.368h-51.8" transform="translate(-1841.972 -58)" fill="none" stroke="#fff" stroke-width="2"/>
      <path id="Path_77" data-name="Path 77" d="M2387.27,219.368h-51.8" transform="translate(-1841.972 7)" fill="none" stroke="#fff" stroke-width="2"/>
      <path id="Path_85" data-name="Path 85" d="M2387.27,219.368h-51.8" transform="translate(-1841.972 71)" fill="none" stroke="#fff" stroke-width="2"/>
      <path id="Path_70" data-name="Path 70" d="M2373.311,219.368h-37.84" transform="translate(-1843.972 -166)" fill="none" stroke="#fff" stroke-width="2"/>
      <path id="Path_74" data-name="Path 74" d="M2373.311,219.368h-37.84" transform="translate(-1841.972 -84)" fill="none" stroke="#fff" stroke-width="2"/>
      <path id="Path_82" data-name="Path 82" d="M2373.311,219.368h-37.84" transform="translate(-1841.972 -19)" fill="none" stroke="#fff" stroke-width="2"/>
      <path id="Path_90" data-name="Path 90" d="M2373.311,219.368h-37.84" transform="translate(-1841.972 45)" fill="none" stroke="#fff" stroke-width="2"/>
      <path id="Path_68" data-name="Path 68" d="M2376.972,219.368h-41.5" transform="translate(-1843.972 -153)" fill="none" stroke="#fff" stroke-width="2"/>
      <path id="Path_72" data-name="Path 72" d="M2376.972,219.368h-41.5" transform="translate(-1841.972 -73)" fill="none" stroke="#fff" stroke-width="2"/>
      <path id="Path_78" data-name="Path 78" d="M2376.972,219.368h-41.5" transform="translate(-1841.972 -8)" fill="none" stroke="#fff" stroke-width="2"/>
      <path id="Path_86" data-name="Path 86" d="M2376.972,219.368h-41.5" transform="translate(-1841.972 56)" fill="none" stroke="#fff" stroke-width="2"/>
      <path id="Path_75" data-name="Path 75" d="M2376.972,219.368h-41.5" transform="translate(-1841.972 -63)" fill="none" stroke="#fff" stroke-width="2"/>
      <path id="Path_79" data-name="Path 79" d="M2376.972,219.368h-41.5" transform="translate(-1841.972 2)" fill="none" stroke="#fff" stroke-width="2"/>
      <path id="Path_87" data-name="Path 87" d="M2376.972,219.368h-41.5" transform="translate(-1841.972 66)" fill="none" stroke="#fff" stroke-width="2"/>
      <path id="Path_69" data-name="Path 69" d="M2383.831,219.368h-48.359" transform="translate(-1843.972 -148)" fill="none" stroke="#fff" stroke-width="2"/>
      <path id="Path_73" data-name="Path 73" d="M2383.831,219.368h-48.359" transform="translate(-1841.972 -68)" fill="none" stroke="#fff" stroke-width="2"/>
      <path id="Path_80" data-name="Path 80" d="M2383.831,219.368h-48.359" transform="translate(-1841.972 -3)" fill="none" stroke="#fff" stroke-width="2"/>
      <path id="Path_88" data-name="Path 88" d="M2383.831,219.368h-48.359" transform="translate(-1841.972 61)" fill="none" stroke="#fff" stroke-width="2"/>
      <g id="Rectangle_9" data-name="Rectangle 9" transform="translate(491 78)" fill="none" stroke="#fff" stroke-width="2">
        <rect width="42" height="8" stroke="none"/>
        <rect x="1" y="1" width="40" height="6" fill="none"/>
      </g>
      <g id="Group_5" data-name="Group 5">
        <g id="Rectangle_10" data-name="Rectangle 10" transform="translate(568 114)" fill="none" stroke="#fff" stroke-width="2">
          <rect width="59" height="36" stroke="none"/>
          <rect x="1" y="1" width="57" height="34" fill="none"/>
        </g>
        <line id="Line_8" data-name="Line 8" x2="56" y2="33" transform="translate(568.5 115.5)" fill="none" stroke="#fff" stroke-width="2"/>
        <line id="Line_9" data-name="Line 9" y1="34" x2="56" transform="translate(568.5 114.5)" fill="none" stroke="#fff" stroke-width="2"/>
      </g>
      <g id="Group_7" data-name="Group 7" transform="translate(76)">
        <g id="Rectangle_10-2" data-name="Rectangle 10" transform="translate(568 114)" fill="none" stroke="#fff" stroke-width="2">
          <rect width="54" height="36" stroke="none"/>
          <rect x="1" y="1" width="52" height="34" fill="none"/>
        </g>
        <line id="Line_8-2" data-name="Line 8" x2="51" y2="33" transform="translate(568.5 115.5)" fill="none" stroke="#fff" stroke-width="2"/>
        <line id="Line_9-2" data-name="Line 9" y1="34" x2="51" transform="translate(568.5 114.5)" fill="none" stroke="#fff" stroke-width="2"/>
      </g>
      <g id="Group_8" data-name="Group 8" transform="translate(76 171)">
        <g id="Rectangle_10-3" data-name="Rectangle 10" transform="translate(568 114)" fill="none" stroke="#fff" stroke-width="2">
          <rect width="54" height="36" stroke="none"/>
          <rect x="1" y="1" width="52" height="34" fill="none"/>
        </g>
        <line id="Line_8-3" data-name="Line 8" x2="51" y2="33" transform="translate(568.5 115.5)" fill="none" stroke="#fff" stroke-width="2"/>
        <line id="Line_9-3" data-name="Line 9" y1="34" x2="51" transform="translate(568.5 114.5)" fill="none" stroke="#fff" stroke-width="2"/>
      </g>
      <g id="Group_6" data-name="Group 6" transform="translate(0 171)">
        <g id="Rectangle_10-4" data-name="Rectangle 10" transform="translate(568 114)" fill="none" stroke="#fff" stroke-width="2">
          <rect width="59" height="36" stroke="none"/>
          <rect x="1" y="1" width="57" height="34" fill="none"/>
        </g>
        <line id="Line_8-4" data-name="Line 8" x2="56" y2="33" transform="translate(568.5 115.5)" fill="none" stroke="#fff" stroke-width="2"/>
        <line id="Line_9-4" data-name="Line 9" y1="34" x2="56" transform="translate(568.5 114.5)" fill="none" stroke="#fff" stroke-width="2"/>
      </g>
      <g id="Rectangle_11" data-name="Rectangle 11" transform="translate(586 94)" fill="none" stroke="#fff" stroke-width="2">
        <rect width="24" height="8" stroke="none"/>
        <rect x="1" y="1" width="22" height="6" fill="none"/>
      </g>
      <g id="Rectangle_13" data-name="Rectangle 13" transform="translate(586 266)" fill="none" stroke="#fff" stroke-width="2">
        <rect width="24" height="8" stroke="none"/>
        <rect x="1" y="1" width="22" height="6" fill="none"/>
      </g>
      <g id="Rectangle_14" data-name="Rectangle 14" transform="translate(663 266)" fill="none" stroke="#fff" stroke-width="2">
        <rect width="24" height="8" stroke="none"/>
        <rect x="1" y="1" width="22" height="6" fill="none"/>
      </g>
      <g id="Rectangle_12" data-name="Rectangle 12" transform="translate(661 94)" fill="none" stroke="#fff" stroke-width="2">
        <rect width="24" height="8" stroke="none"/>
        <rect x="1" y="1" width="22" height="6" fill="none"/>
      </g>
    </g>
  </g>
</svg>
