<svg xmlns="http://www.w3.org/2000/svg" xmlns:xlink="http://www.w3.org/1999/xlink" width="697.5" height="420" viewBox="0 0 697.5 420">
  <defs>
    <clipPath id="clip-thumb_case_erp_outlines">
      <rect width="697.5" height="420"/>
    </clipPath>
  </defs>
  <g id="thumb_case_erp_outlines" clip-path="url(#clip-thumb_case_erp_outlines)">
    <g id="Group_15" data-name="Group 15">
      <path id="Path_93" data-name="Path 93" d="M2970.265,414.409S2845.376,69.781,2839.79,69.97,3005.6.316,3005.6.316" transform="translate(-2804)" fill="none" stroke="#fff" stroke-width="2"/>
      <path id="Path_94" data-name="Path 94" d="M2931.22,92.757s152.659,303.859,146.556,317.618" transform="translate(-2804)" fill="none" stroke="#fff" stroke-width="2"/>
      <path id="Path_95" data-name="Path 95" d="M2870.871,72.648s-23.211-37.906,0-25.7" transform="translate(-2804)" fill="none" stroke="#fff" stroke-width="2"/>
      <path id="Path_96" data-name="Path 96" d="M2891.179,58.588s-13.467-33.273,0-17.516" transform="translate(-2804)" fill="none" stroke="#fff" stroke-width="2"/>
      <path id="Path_97" data-name="Path 97" d="M2913.478,50.061s-19.473-28.127-7.251-20.87" transform="translate(-2804)" fill="none" stroke="#fff" stroke-width="2"/>
      <path id="Path_98" data-name="Path 98" d="M2933.138,40.643,2923.719,19.4" transform="translate(-2804)" fill="none" stroke="#fff" stroke-width="2"/>
      <path id="Path_99" data-name="Path 99" d="M2953.866,30.022l-8.126-19.549" transform="translate(-2804)" fill="none" stroke="#fff" stroke-width="2"/>
      <path id="Path_100" data-name="Path 100" d="M2975.858,23.247,2965.533,3.313" transform="translate(-2804)" fill="none" stroke="#fff" stroke-width="2"/>
      <path id="Path_101" data-name="Path 101" d="M2995.587,13.28,2988.566.593" transform="translate(-2804)" fill="none" stroke="#fff" stroke-width="2"/>
      <path id="Path_102" data-name="Path 102" d="M2970.7,113.063s122.754-58.18,134.583-58.18" transform="translate(-2804)" fill="none" stroke="#fff" stroke-width="2"/>
      <path id="Path_103" data-name="Path 103" d="M2988.566,129.024l189.471-90.963" transform="translate(-2804)" fill="none" stroke="#fff" stroke-width="2"/>
      <path id="Path_104" data-name="Path 104" d="M3012.739,228.946s3.92,13.44,11.3,13.1,132.1-62.467,132.1-62.467l-12.121-18.432Z" transform="translate(-2804)" fill="none" stroke="#fff" stroke-width="2"/>
      <path id="Path_105" data-name="Path 105" d="M3139.268,174.786l-6.32,3.909h6.32Z" transform="translate(-2804)" fill="none" stroke="#fff" stroke-width="2"/>
      <path id="Path_106" data-name="Path 106" d="M3175.026,152.3l77.914-36.973s73.684,72.141,71.472,79.625-59.511,46.628-59.511,46.628" transform="translate(-2804)" fill="none" stroke="#fff" stroke-width="2"/>
      <path id="Path_107" data-name="Path 107" d="M3175.026,161.151l74.429,89.577" transform="translate(-2804)" fill="none" stroke="#fff" stroke-width="2"/>
      <path id="Path_108" data-name="Path 108" d="M3025.553,255.879,3037.191,276,3175,198.36l-7.859-11.137Z" transform="translate(-2804)" fill="none" stroke="#fff" stroke-width="2"/>
      <path id="Path_109" data-name="Path 109" d="M3159.993,198.449l-7.384,3.3h7.384Z" transform="translate(-2804)" fill="none" stroke="#fff" stroke-width="2"/>
      <path id="Path_110" data-name="Path 110" d="M3042.575,286.293l4.379,12.376,144.4-78.659-14.461-15.566Z" transform="translate(-2804)" fill="none" stroke="#fff" stroke-width="2"/>
      <path id="Path_111" data-name="Path 111" d="M3162.344,216.31l8.795,12.253" transform="translate(-2804)" fill="none" stroke="#fff" stroke-width="2"/>
      <path id="Path_112" data-name="Path 112" d="M3054.1,309.1l7.573,15.564,148.363-84.288-10.208-17.739L3054.1,309.1" transform="translate(-2804)" fill="none" stroke="#fff" stroke-width="2"/>
      <path id="Path_113" data-name="Path 113" d="M3178.038,238.595l9.8,11.235" transform="translate(-2804)" fill="none" stroke="#fff" stroke-width="2"/>
      <path id="Path_114" data-name="Path 114" d="M3092.341,288.211l8.3,13.031" transform="translate(-2804)" fill="none" stroke="#fff" stroke-width="2"/>
      <path id="Path_115" data-name="Path 115" d="M3142.527,268.223l30.261-17.626" transform="translate(-2804)" fill="none" stroke="#fff" stroke-width="2"/>
      <path id="Path_116" data-name="Path 116" d="M3071.49,338.312l10.264,19.119,151.815-87.939-15.728-18.12Z" transform="translate(-2804)" fill="none" stroke="#fff" stroke-width="2"/>
      <path id="Path_117" data-name="Path 117" d="M3172.788,276,3187.8,295.51" transform="translate(-2804)" fill="none" stroke="#fff" stroke-width="2"/>
      <path id="Path_118" data-name="Path 118" d="M3187.835,282.7l27.416-12.526" transform="translate(-2804)" fill="none" stroke="#fff" stroke-width="2"/>
      <path id="Path_119" data-name="Path 119" d="M3210.031,383.758l155.105-96.645" transform="translate(-2804)" fill="none" stroke="#fff" stroke-width="2"/>
      <path id="Path_120" data-name="Path 120" d="M3296.137,357.431l48.207-27.763" transform="translate(-2804)" fill="none" stroke="#fff" stroke-width="2"/>
      <path id="Path_121" data-name="Path 121" d="M3296.137,357.431l48.207-27.763" transform="translate(-2793 10)" fill="none" stroke="#fff" stroke-width="2"/>
      <path id="Path_122" data-name="Path 122" d="M3296.137,375l65.712-45.337" transform="translate(-2780 12.427)" fill="none" stroke="#fff" stroke-width="2"/>
      <path id="Path_123" data-name="Path 123" d="M3222.828,3.313l278.844,349.1" transform="translate(-2804)" fill="none" stroke="#fff" stroke-width="2"/>
    </g>
  </g>
</svg>
