<?xml version="1.0" encoding="utf-8"?>
<!-- Generator: Adobe Illustrator 16.0.4, SVG Export Plug-In . SVG Version: 6.00 Build 0)  -->
<!DOCTYPE svg PUBLIC "-//W3C//DTD SVG 1.1//EN" "http://www.w3.org/Graphics/SVG/1.1/DTD/svg11.dtd">
<svg version="1.1" id="Capa_1" xmlns="http://www.w3.org/2000/svg" xmlns:xlink="http://www.w3.org/1999/xlink" x="0px" y="0px"
	 width="1200px" height="800px" viewBox="0 0 1200 800" enable-background="new 0 0 1200 800" xml:space="preserve">
<linearGradient id="SVGID_1_" gradientUnits="userSpaceOnUse" x1="-204" y1="495" x2="996" y2="495" gradientTransform="matrix(1 0 0 -1 204 895)">
	<stop  offset="0" style="stop-color:#F1C40F"/>
	<stop  offset="1" style="stop-color:#F1C40F"/>
</linearGradient>
<rect fill="url(#SVGID_1_)" width="1200" height="800"/>
<g>
	<path d="M550,391.537v-4.795h21.25v4.795h-7.773v21.141h-5.703v-21.141H550L550,391.537z"/>
	<path d="M593.298,410.697c-1.962,1.707-4.674,2.561-8.137,2.561c-3.512,0-6.23-0.848-8.155-2.543
		c-1.925-1.693-2.888-4.309-2.888-7.845v-16.128h5.703v16.129c0,0.702,0.06,1.393,0.182,2.07c0.121,0.678,0.375,1.277,0.763,1.798
		c0.387,0.521,0.927,0.944,1.616,1.271c0.69,0.328,1.616,0.49,2.779,0.49c2.034,0,3.438-0.453,4.214-1.361
		c0.774-0.908,1.162-2.33,1.162-4.268v-16.129h5.703v16.129C596.24,406.382,595.259,408.99,593.298,410.697z"/>
	<path d="M620.214,410.697c-1.961,1.707-4.674,2.561-8.137,2.561c-3.512,0-6.229-0.848-8.154-2.543
		c-1.926-1.693-2.889-4.309-2.889-7.845v-16.128h5.703v16.129c0,0.702,0.061,1.393,0.182,2.07s0.375,1.277,0.763,1.798
		s0.927,0.944,1.616,1.271c0.69,0.328,1.616,0.49,2.779,0.49c2.033,0,3.438-0.453,4.214-1.361c0.774-0.908,1.163-2.33,1.163-4.268
		v-16.129h5.703v16.129C623.156,406.382,622.176,408.99,620.214,410.697z"/>
	<path d="M626.062,386.742h6.61l5.086,8.282l5.267-8.282h6.248l-8.318,12.387L650,412.678h-6.793l-5.667-8.973l-5.775,8.973h-6.393
		l9.045-13.585L626.062,386.742z"/>
</g>
</svg>
